<?xml version="1.0" encoding="utf-8"?>
<!-- Generator: Adobe Illustrator 20.1.0, SVG Export Plug-In . SVG Version: 6.00 Build 0)  -->
<svg version="1.1" id="Слой_1" xmlns="http://www.w3.org/2000/svg" xmlns:xlink="http://www.w3.org/1999/xlink" x="0px" y="0px"
	 viewBox="0 0 180 40" style="enable-background:new 0 0 180 40;" xml:space="preserve">
<style type="text/css">
	.st0{fill:#333333;}
	.st1{fill:url(#SVGID_1_);}
	.st2{fill:url(#SVGID_2_);}
	.st3{fill:#005A9B;}
	.st4{fill:url(#SVGID_3_);}
	.st5{fill:none;stroke:#FFFFFF;stroke-width:1.09;}
	.st6{fill:#0F0F0F;}
	.st7{fill:url(#SVGID_4_);}
	.st8{fill:url(#SVGID_5_);}
	.st9{fill:url(#SVGID_6_);}
	.st10{fill:url(#SVGID_7_);}
	.st11{fill:url(#SVGID_8_);}
	.st12{fill:url(#SVGID_9_);}
	.st13{fill:url(#SVGID_10_);}
	.st14{fill:url(#SVGID_11_);}
	.st15{fill:url(#SVGID_12_);}
	.st16{fill:url(#SVGID_13_);}
	.st17{fill:url(#SVGID_14_);}
	.st18{fill:url(#SVGID_15_);}
	.st19{fill:url(#SVGID_16_);}
	.st20{fill:#231916;}
	.st21{fill:#FFFFFF;}
	.st22{fill:url(#SVGID_17_);}
	.st23{fill:#004594;}
</style>
<g>
	<g id="Layer_1">
		<path class="st0" d="M20.7,1.9C4.1,1.9-1.4,6.8,0.3,21.8C1.8,34.6,7.1,38,20.7,38s18.9-3.4,20.4-16.2C42.8,6.8,37.3,1.9,20.7,1.9z
			"/>
		
			<radialGradient id="SVGID_1_" cx="8.6151" cy="27.1512" r="27.1777" gradientTransform="matrix(0.9444 0 0 -0.9444 5.0894 38.2127)" gradientUnits="userSpaceOnUse">
			<stop  offset="0" style="stop-color:#00A0E8"/>
			<stop  offset="0.5" style="stop-color:#004EA1"/>
			<stop  offset="1" style="stop-color:#0B2C70"/>
		</radialGradient>
		<path class="st1" d="M20.7,2.8c-15.8,0-21,4.6-19.3,18.8c1.4,12.2,6.5,15.4,19.3,15.4S38.6,33.8,40,21.7
			C41.7,7.4,36.4,2.8,20.7,2.8z"/>
		
			<linearGradient id="SVGID_2_" gradientUnits="userSpaceOnUse" x1="20.6833" y1="37.4801" x2="20.6833" y2="1.6651" gradientTransform="matrix(1 0 0 -1 0 39.4)">
			<stop  offset="0" style="stop-color:#ACACAD"/>
			<stop  offset="6.000000e-02" style="stop-color:#FDFDFD"/>
			<stop  offset="9.000000e-02" style="stop-color:#FDFDFD"/>
			<stop  offset="0.26" style="stop-color:#FDFDFD"/>
			<stop  offset="0.4" style="stop-color:#FDFDFD"/>
			<stop  offset="0.69" style="stop-color:#3C3837"/>
			<stop  offset="1" style="stop-color:#3C3837"/>
		</linearGradient>
		<path class="st2" d="M20.7,2.1C4.2,2.1-1.3,6.9,0.5,21.8c1.5,12.7,6.8,16.1,20.2,16.1s18.7-3.4,20.2-16.1
			C42.6,6.9,37.1,2.1,20.7,2.1z M38.4,21.6L38.4,21.6c-1.3,11.8-5.9,14.9-17.7,14.9S4.3,33.4,3,21.6C1.5,7.8,6.3,3.3,20.7,3.3
			S39.9,7.8,38.4,21.6L38.4,21.6z"/>
		<path class="st3" d="M20.7,2.9C5.4,2.9,0.3,7.5,1.9,21.7C3.3,33.8,8.2,37,20.7,37s17.4-3.2,18.7-15.3C41,7.5,35.9,2.9,20.7,2.9z
			 M38,21.6L38,21.6c-1.3,11.6-5.8,14.6-17.4,14.6S4.6,33.2,3.3,21.6C1.9,8,6.6,3.6,20.7,3.6S39.5,8,38,21.6z"/>
		
			<linearGradient id="SVGID_3_" gradientUnits="userSpaceOnUse" x1="20.6833" y1="2.3043" x2="20.6833" y2="36.7138" gradientTransform="matrix(1 0 0 -1 0 39.4)">
			<stop  offset="0" style="stop-color:#C0C1C1"/>
			<stop  offset="0.11" style="stop-color:#EBEBEB"/>
			<stop  offset="0.17" style="stop-color:#EBEBEB"/>
			<stop  offset="0.44" style="stop-color:#231916"/>
			<stop  offset="0.59" style="stop-color:#231916"/>
			<stop  offset="0.79" style="stop-color:#231916"/>
			<stop  offset="1" style="stop-color:#231916"/>
		</linearGradient>
		<path class="st4" d="M20.7,2.8C5.3,2.8,0.2,7.4,1.8,21.7c1.4,12.2,6.3,15.4,18.9,15.4s17.5-3.2,18.9-15.4
			C41.2,7.4,36,2.8,20.7,2.8z M38.2,21.6L38.2,21.6c-1.3,11.7-5.9,14.7-17.5,14.7S4.5,33.3,3.2,21.6C1.7,8,6.5,3.5,20.7,3.5
			S39.6,8,38.2,21.6z"/>
		<path class="st5" d="M20.7,2.8C5.3,2.8,0.2,7.4,1.8,21.7c1.4,12.2,6.3,15.4,18.9,15.4s17.5-3.2,18.9-15.4
			C41.2,7.4,36,2.8,20.7,2.8"/>
		<path class="st6" d="M32.2,8.6C29.7,6.7,26,6,20.7,6S11.6,6.7,9.2,8.6S5.6,13.5,5.6,18c0,1.3,0.1,2.6,0.2,3.8
			c0.5,5.1,1.8,8.3,4.1,10.3s5.8,2.6,10.7,2.6s8.3-0.7,10.7-2.6s3.6-5.2,4.1-10.3c0.1-1.3,0.2-2.5,0.2-3.8
			C35.7,13.5,34.6,10.5,32.2,8.6z"/>
		
			<radialGradient id="SVGID_4_" cx="8.6087" cy="27.1544" r="27.1809" gradientTransform="matrix(0.9444 0 0 -0.9444 5.0894 38.2127)" gradientUnits="userSpaceOnUse">
			<stop  offset="0" style="stop-color:#00A0E8"/>
			<stop  offset="0.5" style="stop-color:#004EA1"/>
			<stop  offset="1" style="stop-color:#0B2C70"/>
		</radialGradient>
		<path class="st7" d="M34.4,21.5c-1,9.4-4.6,11.8-13.6,11.8S8.1,30.8,7.1,21.5C6,10.5,9.6,7,20.7,7S35.5,10.5,34.4,21.5z"/>
		
			<linearGradient id="SVGID_5_" gradientUnits="userSpaceOnUse" x1="21.3982" y1="12.303" x2="17.203" y2="26.4758" gradientTransform="matrix(1 0 0 -1 0 39.4)">
			<stop  offset="0" style="stop-color:#4C4949"/>
			<stop  offset="0.7" style="stop-color:#4C4949"/>
			<stop  offset="0.71" style="stop-color:#4C4949"/>
			<stop  offset="0.83" style="stop-color:#3E3A39"/>
			<stop  offset="0.92" style="stop-color:#3E3A39"/>
			<stop  offset="1" style="stop-color:#3E3A39"/>
		</linearGradient>
		<polygon class="st8" points="15.3,7.6 14.4,6.7 20.7,25.2 20.7,21.4 		"/>
		
			<linearGradient id="SVGID_6_" gradientUnits="userSpaceOnUse" x1="23.8244" y1="14.0901" x2="23.8244" y2="27.6783" gradientTransform="matrix(1 0 0 -1 0 39.4)">
			<stop  offset="0" style="stop-color:#656464"/>
			<stop  offset="0.7" style="stop-color:#656464"/>
			<stop  offset="0.71" style="stop-color:#656464"/>
			<stop  offset="0.83" style="stop-color:#3E3A39"/>
			<stop  offset="0.92" style="stop-color:#3E3A39"/>
			<stop  offset="1" style="stop-color:#3E3A39"/>
		</linearGradient>
		<polygon class="st9" points="26.1,7.6 27,6.7 20.7,25.2 20.7,21.4 		"/>
		
			<linearGradient id="SVGID_7_" gradientUnits="userSpaceOnUse" x1="20.6912" y1="33.1789" x2="20.6912" y2="6.666" gradientTransform="matrix(1 0 0 -1 0 39.4)">
			<stop  offset="0" style="stop-color:#717171"/>
			<stop  offset="1" style="stop-color:#4C4949"/>
		</linearGradient>
		<path class="st10" d="M20.7,6.3c-9.2,0-15.6,2.7-14.1,15.2c1.2,10.2,6.8,12.1,14.1,12.1s12.9-1.9,14.1-12.1
			C36.3,8.9,29.9,6.3,20.7,6.3L20.7,6.3z M20.7,32.8L20.7,32.8c-5.7,0-12-0.9-13.2-11.4C6,8.4,13.6,7.3,20.7,7.3s14.7,1,13.2,14.1
			C32.7,32,26.4,32.8,20.7,32.8z"/>
		
			<linearGradient id="SVGID_8_" gradientUnits="userSpaceOnUse" x1="20.6852" y1="37.886" x2="20.6852" y2="15.9348" gradientTransform="matrix(1 0 0 -1 0 39.4)">
			<stop  offset="0" style="stop-color:#3E3A39"/>
			<stop  offset="1" style="stop-color:#000000"/>
		</linearGradient>
		<path class="st11" d="M7.1,24c-0.2-1.6,0.2-1.9,0.1-3.6C6.5,9.7,11.6,7.5,19.4,7.1h0.2c0.4,0,0.7,0,1.1,0c0.4,0,0.7,0,1.1,0H22
			c7.8,0.4,12.9,2.7,12.2,13.3c-0.2,2.1,0.5,1.7-0.1,4.1c0.3-1,0.5-2.1,0.7-3.1C36.3,8.9,29.9,6.3,20.7,6.3S5.1,8.9,6.6,21.4
			c0.1,1.1,0.3,2.1,0.6,3.1C7.2,24.4,7.1,24.2,7.1,24z"/>
		
			<linearGradient id="SVGID_9_" gradientUnits="userSpaceOnUse" x1="20.6833" y1="33.9241" x2="20.6833" y2="5.0122" gradientTransform="matrix(1 0 0 -1 0 39.4)">
			<stop  offset="0" style="stop-color:#ACACAD"/>
			<stop  offset="6.000000e-02" style="stop-color:#FDFDFD"/>
			<stop  offset="9.000000e-02" style="stop-color:#FDFDFD"/>
			<stop  offset="0.26" style="stop-color:#FDFDFD"/>
			<stop  offset="0.4" style="stop-color:#FDFDFD"/>
			<stop  offset="0.69" style="stop-color:#3C3837"/>
			<stop  offset="1" style="stop-color:#3C3837"/>
		</linearGradient>
		<path class="st12" d="M20.7,5.6C11,5.6,4.1,8.5,5.8,21.7C7.1,32.3,13,34.3,20.7,34.3s13.6-2,14.9-12.7C37.2,8.5,30.4,5.6,20.7,5.6
			L20.7,5.6z M20.7,33.5L20.7,33.5c-7.3,0-12.9-1.9-14.1-12.1C5.1,8.9,11.5,6.3,20.7,6.3s15.6,2.7,14.1,15.2
			C33.6,31.6,28,33.5,20.7,33.5z"/>
		
			<linearGradient id="SVGID_10_" gradientUnits="userSpaceOnUse" x1="17.1293" y1="19.9263" x2="25.556" y2="9.461" gradientTransform="matrix(1 0 0 -1 0 39.4)">
			<stop  offset="0" style="stop-color:#FFFFFF"/>
			<stop  offset="5.000000e-02" style="stop-color:#FFFFFF"/>
			<stop  offset="0.14" style="stop-color:#FFFFFF"/>
			<stop  offset="0.3" style="stop-color:#E5E5E6"/>
			<stop  offset="0.37" style="stop-color:#E5E5E6"/>
			<stop  offset="0.66" style="stop-color:#9E9E9F"/>
			<stop  offset="0.85" style="stop-color:#7D7D7D"/>
			<stop  offset="0.88" style="stop-color:#7D7D7D"/>
			<stop  offset="1" style="stop-color:#7D7D7D"/>
		</linearGradient>
		<path class="st13" d="M13.2,17.6c0-2.9,0.1-7.9,0.2-9.8c0-0.2-0.1-0.4-0.4-0.3V7.3l1.8-0.5l0.1,0.2c-0.2,0-0.3,0.2-0.3,0.4
			c0,0,0,0.1,0,0.1C14.8,7.9,19,20.1,19.9,23c0.1,0.4,0.7,0.6,0.7,0.6v10c0,0-0.2,0-0.4-0.4c-1.2-1.6-3.8-6.7-5.8-10.5
			C14,21.6,13.2,20.1,13.2,17.6z"/>
		
			<linearGradient id="SVGID_11_" gradientUnits="userSpaceOnUse" x1="13.8826" y1="24.7126" x2="21.9428" y2="4.279" gradientTransform="matrix(1 0 0 -1 0 39.4)">
			<stop  offset="0" style="stop-color:#9E9E9F"/>
			<stop  offset="0.26" style="stop-color:#231916"/>
			<stop  offset="0.52" style="stop-color:#231916"/>
			<stop  offset="0.8" style="stop-color:#9E9E9F"/>
			<stop  offset="0.95" style="stop-color:#C8C9CA"/>
			<stop  offset="1" style="stop-color:#C8C9CA"/>
		</linearGradient>
		<path class="st14" d="M13.5,7.8c0,0.1,0,8.5,0.1,10.4c0.1,1.5,0.6,2.8,1.8,4.5c3.4,4.9,5.3,7.4,5.3,7.4v3.3c0,0-0.8-1.3-1.9-3.1
			c-1.1-1.9-2.4-4.5-3.8-7.2c-1-2-1.6-3.6-1.7-5.7C13.3,14.6,13.4,10,13.5,7.8z"/>
		
			<linearGradient id="SVGID_12_" gradientUnits="userSpaceOnUse" x1="19.5687" y1="6.7873" x2="20.2835" y2="6.1179" gradientTransform="matrix(1 0 0 -1 0 39.4)">
			<stop  offset="0" style="stop-color:#7D7D7D"/>
			<stop  offset="6.000000e-02" style="stop-color:#7D7D7D"/>
			<stop  offset="0.56" style="stop-color:#4C4949"/>
			<stop  offset="0.74" style="stop-color:#4C4949"/>
			<stop  offset="1" style="stop-color:#4C4949"/>
		</linearGradient>
		<path class="st15" d="M19.7,32.4l0.7,0.8c-0.1,0.2-0.3,0.2-0.5,0.2l-0.6-0.6C19.7,32.8,19.9,32.7,19.7,32.4z"/>
		
			<linearGradient id="SVGID_13_" gradientUnits="userSpaceOnUse" x1="22.1839" y1="20.807" x2="27.5301" y2="16.6361" gradientTransform="matrix(1 0 0 -1 0 39.4)">
			<stop  offset="0" style="stop-color:#FFFFFF"/>
			<stop  offset="5.000000e-02" style="stop-color:#FFFFFF"/>
			<stop  offset="0.14" style="stop-color:#FFFFFF"/>
			<stop  offset="0.3" style="stop-color:#E5E5E6"/>
			<stop  offset="0.37" style="stop-color:#E5E5E6"/>
			<stop  offset="0.66" style="stop-color:#9E9E9F"/>
			<stop  offset="0.85" style="stop-color:#7D7D7D"/>
			<stop  offset="0.88" style="stop-color:#7D7D7D"/>
			<stop  offset="1" style="stop-color:#7D7D7D"/>
		</linearGradient>
		<path class="st16" d="M28.2,17.6c0-2.9-0.1-7.9-0.2-9.8c0-0.2,0.1-0.4,0.4-0.3l0-0.2l-1.8-0.5l-0.1,0.1c0.2,0,0.3,0.2,0.3,0.4
			c0,0,0,0.1,0,0.1L21.4,23c-0.1,0.4-0.7,0.6-0.7,0.6v10c0,0,0.2,0,0.4-0.4c1.2-1.6,3.8-6.7,5.8-10.5C27.4,21.6,28.1,20.1,28.2,17.6
			z"/>
		
			<linearGradient id="SVGID_14_" gradientUnits="userSpaceOnUse" x1="22.2785" y1="23.7746" x2="28.7424" y2="7.3937" gradientTransform="matrix(1 0 0 -1 0 39.4)">
			<stop  offset="0" style="stop-color:#9E9E9F"/>
			<stop  offset="0.26" style="stop-color:#231916"/>
			<stop  offset="0.52" style="stop-color:#231916"/>
			<stop  offset="0.8" style="stop-color:#9E9E9F"/>
			<stop  offset="0.95" style="stop-color:#C8C9CA"/>
			<stop  offset="1" style="stop-color:#C8C9CA"/>
		</linearGradient>
		<path class="st17" d="M27.8,7.8c0,0.1,0,8.5-0.1,10.4c-0.1,1.5-0.6,2.8-1.8,4.5c-3.4,4.9-5.3,7.4-5.3,7.4v3.3c0,0,0.8-1.3,1.9-3.1
			c1.1-1.9,2.4-4.5,3.8-7.2c1-2,1.6-3.6,1.7-5.7C28,14.6,28,10,27.8,7.8z"/>
		
			<linearGradient id="SVGID_15_" gradientUnits="userSpaceOnUse" x1="20.6772" y1="32.0279" x2="20.6772" y2="5.9845" gradientTransform="matrix(1 0 0 -1 0 39.4)">
			<stop  offset="0" style="stop-color:#FFFFFF"/>
			<stop  offset="0.64" style="stop-color:#FFFFFF"/>
			<stop  offset="0.66" style="stop-color:#FFFFFF"/>
			<stop  offset="0.7" style="stop-color:#C8C9CA"/>
			<stop  offset="1" style="stop-color:#FFFFFF"/>
		</linearGradient>
		<path class="st18" d="M20.8,32.9c0-1.7,0-5.8,0-6.2c0-0.7,0.2-1.5,0.4-2.1L27,7.1h-0.2l-5.7,16.6l-0.3,0.9c0,0,0,0.1-0.2,0.1
			c-0.1,0-0.2-0.1-0.2-0.1l-0.3-0.9L14.6,7.2l-0.1-0.4l-0.1,0.3l5.8,17.5c0.2,0.7,0.4,1.4,0.4,2.1c0,0.3,0,4.5,0,6.2
			c0,0.3-0.3,0.5-0.6,0.5l0,0.2h1.4l0-0.2C21.1,33.4,20.9,33.2,20.8,32.9z"/>
		
			<linearGradient id="SVGID_16_" gradientUnits="userSpaceOnUse" x1="19.3899" y1="17.9203" x2="21.9434" y2="17.9203" gradientTransform="matrix(1 0 0 -1 0 39.4)">
			<stop  offset="0" style="stop-color:#4C4949"/>
			<stop  offset="0.35" style="stop-color:#4C4949"/>
			<stop  offset="0.49" style="stop-color:#A9AAAA"/>
			<stop  offset="0.5" style="stop-color:#A9AAAA"/>
			<stop  offset="0.64" style="stop-color:#656464"/>
			<stop  offset="0.65" style="stop-color:#656464"/>
			<stop  offset="0.99" style="stop-color:#656464"/>
			<stop  offset="1" style="stop-color:#656464"/>
		</linearGradient>
		<path class="st19" d="M21,20.5c0,0-0.1,0.3-0.4,0.3c-0.2,0-0.3-0.1-0.4-0.3l-0.9-2.4l0,3.3l1.1,3.3c0,0,0,0.1,0.2,0.1
			s0.2-0.1,0.2-0.1l1.1-3.3l0-3.3L21,20.5z"/>
		<path class="st20" d="M26.8,7.2c0-0.1,0-0.1-0.1-0.2c0,0-0.1-0.1-0.1-0.1c-1.9-0.4-3.9-0.6-5.8-0.5l0,0c-2,0-3.9,0.2-5.8,0.5
			c0,0-0.1,0-0.1,0.1c-0.1,0.1-0.1,0.1-0.1,0.2c0,0.1,0,0.1,0,0.2C14.8,7.9,19,20.1,19.9,23c0,0.1,0.1,0.1,0.1,0.2l0.5,1.5
			c0,0,0,0.1,0.2,0.1v-0.1c-0.1,0-0.1-0.1-0.1-0.1c0,0-5.1-15.4-5.3-16c-0.2-0.6,0.2-0.6,0.2-0.6l-0.2-0.5c0,0,0-0.2,0.3-0.4
			c0.7-0.4,3.4-0.6,5.1-0.6c1.7,0,4.3,0.2,5.1,0.6c0.4,0.2,0.3,0.4,0.3,0.4l-0.2,0.5c0,0,0.3,0.1,0.1,0.7
			c-0.2,0.6-5.2,15.9-5.2,15.9s0,0.1-0.1,0.1v0.1c0.1,0,0.2-0.1,0.2-0.1l0.5-1.5c0-0.1,0.1-0.1,0.1-0.2l5.3-15.6
			C26.7,7.3,26.8,7.3,26.8,7.2z"/>
		<path class="st21" d="M6.5,21.4c-0.6-5.3,0.1-9.5,2.8-12l0,0c2.8-2.7,6.8-3.2,11.4-3.2s8.7,0.5,11.5,3.2l0,0
			c2.7,2.6,3.4,6.7,2.8,12c-0.6,4.9-2.5,8.4-4.8,9.9c-2.8,1.8-5.8,2.2-9.4,2.2v-0.2c7.3,0,12.8-1.9,14-12c1.5-12.4-4.8-15-14-15
			S5.2,9,6.7,21.4c1.2,10.1,6.7,12,14,12v0.2c-3.7,0-7.1-0.5-9.5-2.3C8.7,29.5,7.1,26.3,6.5,21.4z"/>
		
			<linearGradient id="SVGID_17_" gradientUnits="userSpaceOnUse" x1="21.2594" y1="6.6151" x2="21.6168" y2="6.2789" gradientTransform="matrix(1 0 0 -1 0 39.4)">
			<stop  offset="0" style="stop-color:#7D7D7D"/>
			<stop  offset="6.000000e-02" style="stop-color:#7D7D7D"/>
			<stop  offset="0.56" style="stop-color:#4C4949"/>
			<stop  offset="0.74" style="stop-color:#4C4949"/>
			<stop  offset="1" style="stop-color:#4C4949"/>
		</linearGradient>
		<path class="st22" d="M21.6,32.4l-0.7,0.8c0.1,0.2,0.3,0.2,0.5,0.2l0.6-0.6C21.6,32.8,21.5,32.6,21.6,32.4z"/>
		<path class="st23" d="M66.6,27.9h-9c-2.1,0.1-4.2-0.8-5.6-2.3c-1.5-1.5-2.3-3.5-2.3-5.8s0.8-4.2,2.2-5.7s3.4-2.2,5.7-2.2h9
			l-2.3,4.1H59c-2.1-0.1-3.8,1.5-3.9,3.6c0,0.1,0,0.2,0,0.3c0,1,0.4,2,1.1,2.7c0.7,0.7,1.7,1.1,2.8,1.1h5.3L66.6,27.9z"/>
		<polygon class="st23" points="79.4,27.9 79.4,21.9 72.9,21.9 72.9,27.9 68.2,27.9 68.2,12 72.9,12 72.9,17.8 79.4,17.8 79.4,12 
			84.1,12 84.1,27.9 		"/>
		<polygon class="st23" points="95,23.7 99.1,23.7 95.7,15.7 90.2,27.9 85.7,27.9 93.3,11.9 98.5,11.9 106.6,27.9 97.7,27.9 		"/>
		<polygon class="st23" points="151,23.7 155.1,23.7 151.7,15.7 146.2,27.9 141.7,27.9 149.2,11.9 154.4,11.9 162.6,27.9 
			153.7,27.9 		"/>
		<path class="st23" d="M133.2,18.4l2.7,3.9h2.4l-0.8,1.5h-4c-1,0-2-0.3-2.8-1.1c-0.7-0.7-1.1-1.7-1.1-2.7c0-1.1,0.4-2.1,1.1-2.8
			c0.7-0.7,1.7-1.1,2.8-1.1h9.9l2-4.1h-11.8c-2.3,0-4.2,0.7-5.7,2.2s-2.2,3.3-2.2,5.6s0.7,4.3,2.2,5.8c1.5,1.5,3.5,2.4,5.6,2.3h4.3
			l4.5-9.5L133.2,18.4z"/>
		<polygon class="st23" points="176,27.9 168.1,19.1 168.1,27.9 164.1,27.9 164.1,11.9 168.1,11.9 176,20.7 176,12 180,12 180,27.9 
					"/>
		<polygon class="st23" points="120.1,27.9 112.1,19.1 112.1,27.9 108.2,27.9 108.2,11.9 112.1,11.9 120.1,20.7 120.1,12 124.1,12 
			124.1,27.9 		"/>
	</g>
</g>
</svg>
