<?xml version="1.0" standalone="no"?><!-- Generator: Gravit.io --><svg xmlns="http://www.w3.org/2000/svg" xmlns:xlink="http://www.w3.org/1999/xlink" style="isolation:isolate" viewBox="0 0 534.5000000000175 106" width="534.5000000000175" height="106"><path d=" M 486.9341188774 47.63733647004818 C 487.08602327912354 46.5000717236631 488.0694044060706 45.64291657103513 489.2346710666603 45.64291657103513 L 520.3161105272093 45.64291657103513 C 522.3288438500459 45.64291657103513 524.3935444682091 45.8062313518476 526.3493136403996 46.29320633463391 C 528.5929016790136 46.85243573559791 530.7425488376143 47.86498737663533 532.2635915969774 49.63670530181315 C 533.6467211495128 51.24807780582972 534.2873180015179 53.23457941243976 534.454212969201 55.31709031443654 C 534.5971230313488 57.10563461097087 534.3912525921709 58.941688661923365 534.0344771223333 60.69460064264405 C 533.6856966210077 62.40594158824882 533.0880727247533 64.06284427358275 532.2525985152738 65.59899299977047 C 532.0897010318466 65.89889832453525 531.9158104667157 66.19286492999771 531.734924304137 66.48287238925866 C 531.5550375126223 66.77189006196926 531.3671557525959 67.0579383750287 531.1702796529937 67.33705818223547 L 531.1662821687378 67.34200711498738 C 529.5662890953209 69.59872044985082 527.4955922507738 71.40112175809043 525.0451344019181 72.70566043148955 C 524.5894211967475 72.94914792288273 524.1227149098731 73.17184989671796 523.6480136544872 73.37772549919669 C 521.0956199571062 74.48232728941935 518.3283614809718 75.03561797108102 515.5511092941975 75.15538214367683 L 515.5511092941975 75.1840859536378 L 496.8119024736852 75.1840859536378 L 494.7122238682831 85.51151882028921 C 494.55632198230364 86.64680399357354 493.57493959748456 87.5 492.4126710500867 87.5 L 480.4961704833016 87.5 L 480.4961704833016 87.18722745008034 C 479.6616956448862 86.70817075969705 479.1859950184362 85.7391697268763 479.3848698601663 84.75136274959834 L 486.9341188774 47.63733647004818 Z  M 517.2140627446446 60.837129905898564 C 517.2200589710284 60.77972228597662 517.2170608578365 60.80446694973608 517.2380476501799 60.70548829469817 L 517.3149992221056 60.32046132660088 C 517.4279281523343 59.676110282304364 517.4958853846842 59.00305542804682 517.439920605102 58.35870438375031 C 517.3919507940313 57.80541370208857 517.2440438765636 57.26301067248107 516.8922652620461 56.81958629791143 C 516.5934533139189 56.4434674087675 516.1987017436504 56.19997991737432 515.7469860227358 56.042603855864115 C 515.1493621264814 55.83375889373423 514.4677910608534 55.77338191416112 513.838187290552 55.77338191416112 L 500.760417547433 55.77338191416112 L 498.81464208588227 65.3376893504705 L 511.729514345574 65.3376893504705 C 513.6692935807409 65.3376893504705 515.3782181001307 64.75470507229744 516.3905809879328 63.043364126692666 C 516.5854583454071 62.71475499196697 516.7443583445784 62.364370553132915 516.8762753250226 62.00606782189578 C 517.0171866450423 61.625 517.1271174620791 61.23304452605004 517.2140627446446 60.837129905898564 Z  M 461.0993775026967 87.1892070231811 C 460.645663039654 86.92988294698188 460.2838907144967 86.52011131512512 460.09101209915036 86.01334060133121 C 459.63130140972385 84.81569887537296 459.1925775126408 83.61013885701169 458.7738410368371 82.39864011934816 C 458.3561039320974 81.19110052788619 457.9563555065092 79.9776222171219 457.57359638900846 78.7591949736057 L 457.57259701794453 78.75523582740419 L 435.55845122080063 78.75523582740419 L 435.55845122080063 78.75622561395454 C 434.74696191685655 80.01325453293549 433.94746506568003 81.27919153086987 433.1569625540793 82.54908767500575 C 432.38744683482196 83.7863208629791 431.6269254551404 85.02949277025476 430.87040155971465 86.27464425063118 C 430.4696537630625 87.02688202891898 429.68114999358966 87.5 428.81869276538305 87.5 L 416.5544110683362 87.5 L 416.5544110683362 87.1892070231811 C 416.5234305653531 87.1713908652743 416.49344943343397 87.15357470736745 416.4624689304509 87.1337789763599 C 415.3901437788104 86.45280582969934 415.0753418936597 85.0235540509525 415.76290918567145 83.9625028689465 C 416.63436075345385 82.61441358733072 417.5178047740038 81.27424259811795 418.4102431341295 79.9400103282075 C 419.3006827521273 78.60775763139776 420.2021154518287 77.28342322699103 421.10654626472217 75.96106839568512 C 422.39273682405224 74.08146373651596 423.6879217229581 72.20878758319947 424.9970978167596 70.34501950883634 C 426.306273910561 68.48224122102363 427.6274424571302 66.62837101216434 428.95660597221104 64.7794497360569 C 431.1742103631617 61.69626463162729 433.41280154645585 58.6279263254533 435.68537134592486 55.58433268303878 C 437.95694177433006 52.54370840027542 440.26349018997416 49.52881856782187 442.6160096745608 46.54857126463162 C 443.05473357164396 45.98043378471425 443.7333065240799 45.64687571723664 444.45785054545865 45.64687571723664 L 463.15508378128413 45.64687571723664 C 464.2713812597393 45.58550895111313 465.28574288966945 46.334777369749816 465.54058251098195 47.41859364241452 C 466.2101611238422 50.23651595134265 466.92870891883706 53.042560821666314 467.68423344319876 55.83870782648614 C 468.44175670968855 58.64277312370899 469.2342579634171 61.436940555428066 470.05574097800104 64.22219990819372 C 470.62937996872006 66.16515090658709 471.21800952539877 68.1031529722286 471.82162964803695 70.0371958916686 C 472.42524977067524 71.96826945145745 473.0478579435289 73.89340429194402 473.6864560534061 75.81359019967869 C 474.16515479304803 77.25471941703006 474.6518485012017 78.69386906128068 475.1555315174428 80.12707998622903 C 475.64522333878847 81.5206994491623 476.14890635502957 82.90838019279323 476.6715774214862 84.2891324305715 C 476.7974981755465 84.57716031673169 476.8634566657686 84.88696350700025 476.8634566657686 85.20171563002066 C 476.8634566657686 86.47062198760614 475.8231113881752 87.5 474.5419176841649 87.5 L 461.0993775026967 87.5 L 461.0993775026967 87.1892070231811 Z  M 451.60435302391227 55.887207367454664 L 450.9537624612674 55.887207367454664 C 449.4307209597762 57.966748909800344 447.93466247701224 60.06608618315357 446.45859141552774 62.179280468212085 C 444.9775234987234 64.29940325912327 443.5154436321344 66.43437284829014 442.06035936299327 68.57231179710811 L 442.05636187873733 68.57627094330962 L 454.7553699886115 68.57627094330962 L 454.75337124648354 68.5683526509066 C 454.1727366583166 66.47396431030523 453.6100907493012 64.37363725040166 453.0814234564607 62.264402111544655 C 452.5517567925564 60.14823846683498 452.055069373763 58.022176956621536 451.60435302391227 55.887207367454664 Z  M 429.01057200966545 53.95514402111547 C 428.85566949475003 55.0904291943998 427.87428710993083 55.94461498737667 426.7110191914692 55.94461498737667 L 401.6937633470937 55.94461498737667 L 395.67954828411877 85.51151882028921 C 395.5246457692033 86.64680399357354 394.5432633843842 87.5 393.37999546592243 87.5 L 381.4634948991373 87.5 L 381.4634948991373 87.18722745008034 C 380.63001943178585 86.70718097314665 380.15431880533583 85.73817994032589 380.353193647066 84.75136274959834 L 387.92143071451517 47.539347601560735 C 388.1173074430534 46.44761303649301 389.0787024065931 45.64687571723664 390.20299485355997 45.64687571723664 L 427.84930283333165 45.64687571723664 C 428.0082028325029 45.645885930686234 428.1691015738022 45.66073272894192 428.32500345978156 45.69240589855406 C 429.57721540293676 45.93985253614875 430.3927021911368 47.15135127381228 430.14285942514414 48.39155382143679 L 429.01057200966545 53.95514402111547 Z  M 357.1987654659317 87.18722745008034 C 356.36528999858024 86.70718097314665 355.8895893721302 85.73817994032589 356.0884642138604 84.75136274959834 L 358.9236799223449 70.80922940096394 L 339.80271335539584 70.80922940096394 L 336.81259513199586 85.51151882028921 C 336.65769261708044 86.64680399357354 335.67631023226136 87.5 334.5130423137996 87.5 L 322.59654174701444 87.5 L 322.59654174701444 87.18722745008034 C 321.76306627966295 86.70718097314665 321.286366282149 85.73817994032589 321.4862404949431 84.75136274959834 L 329.03548951217687 47.63733647004818 C 329.1873939139004 46.5000717236631 330.16977566978346 45.64291657103513 331.3360417014371 45.64291657103513 L 343.25254226822227 45.64291657103513 L 343.25254226822227 45.95568912095479 C 344.08601773557376 46.43573559788848 344.5617183620237 47.40473663070918 344.3628435202936 48.392543607987136 L 341.9883378722995 60.06311682350241 L 361.10930443924855 60.06311682350241 L 363.6367138600301 47.63733647004818 C 363.7896176328176 46.5000717236631 364.7719993887007 45.64291657103513 365.93726604929043 45.64291657103513 L 377.85476598713956 45.64291657103513 L 377.85476598713956 45.95568912095479 C 378.688241454491 46.43573559788848 379.163942080941 47.40473663070918 378.96506723921084 48.392543607987136 L 371.41481885091315 85.51151882028921 C 371.2599163359977 86.64680399357354 370.2785339511786 87.5 369.1152660327168 87.5 L 357.1987654659317 87.5 L 357.1987654659317 87.18722745008034 Z  M 303.1997487664095 87.1892070231811 C 302.74703367443084 86.92988294698188 302.3842619782095 86.52011131512512 302.19238273392716 86.01334060133121 C 301.7326720445007 84.81470908882261 301.2939481474176 83.61013885701169 300.87521167161395 82.39864011934816 C 300.4574745668742 81.19110052788619 300.057726141286 79.9776222171219 299.67496702378526 78.76018476015605 L 277.65682374238554 78.76018476015605 C 276.8463338095054 80.01622389258665 276.0478363293929 81.28018131742027 275.25833318885617 82.54908767500575 C 274.4888174695988 83.7863208629791 273.7282960899172 85.02949277025476 272.97177219449145 86.27464425063118 C 272.57102439783927 87.02688202891898 271.78252062836646 87.5 270.92006340015985 87.5 L 258.65578170311295 87.5 L 258.65578170311295 87.1892070231811 C 258.62480120012987 87.1713908652743 258.5938206971468 87.15357470736745 258.5638395652277 87.1337789763599 C 257.49151441358725 86.45280582969934 257.1767125284365 85.0235540509525 257.86427982044825 83.9625028689465 C 258.7357313882306 82.61441358733072 259.61917540878056 81.27424259811795 260.51161376890633 79.9400103282075 C 261.40105401584015 78.60775763139776 262.3034860866056 77.28342322699103 263.2079168994989 75.96106839568512 C 264.49410745882903 74.08146373651596 265.78929235773495 72.20878758319947 267.0984684515364 70.34501950883634 C 268.40764454533786 68.48224122102363 269.72881309190694 66.62837101216434 271.05797660698784 64.7794497360569 C 273.2755809979385 61.69527484507688 275.5141721812326 58.6279263254533 277.7867419807017 55.58433268303878 C 280.0583124091068 52.54370840027542 282.3638614536869 49.52881856782187 284.71738030933767 46.54857126463162 C 285.1551048353568 45.98043378471425 285.8346771588568 45.64687571723664 286.55822180917147 45.64687571723664 L 305.25645441606093 45.64687571723664 C 306.3727518945161 45.58550895111313 307.3871135244462 46.334777369749816 307.6419531457587 47.41859364241452 C 308.311531758619 50.23651595134265 309.0290801825499 53.042560821666314 309.7856040779756 55.83870782648614 C 310.5431273444653 58.64277312370899 311.335628598194 61.436940555428066 312.1571116127778 64.22219990819372 C 312.7307506034969 66.16515090658709 313.3183807891116 68.1031529722286 313.9230002828138 70.0371958916686 C 314.52662040545204 71.96826945145745 315.14922857830567 73.89340429194402 315.78682731711893 75.81359019967869 C 316.2665254278248 77.25471941703006 316.75321913597844 78.69386906128068 317.25690215221965 80.12707998622903 C 317.7465939735652 81.5206994491623 318.25027698980637 82.90838019279323 318.772948056263 84.2891324305715 C 318.8988688103233 84.57716031673169 318.9638279294814 84.88696350700025 318.9638279294814 85.20171563002066 C 318.9638279294814 86.47062198760614 317.92448202295196 87.5 316.6432883189417 87.5 L 303.1997487664095 87.5 L 303.1997487664095 87.1892070231811 Z  M 293.705723658689 55.887207367454664 L 293.0551330960442 55.887207367454664 C 291.53209159455304 57.966748909800344 290.03603311178904 60.06707596970392 288.55996205030453 62.179280468212085 C 287.0788941335001 64.29940325912327 285.61681426691115 66.43437284829014 284.16172999777 68.57132201055771 L 284.160730626706 68.57231179710811 L 296.85574125232426 68.57231179710811 L 296.85474188126034 68.5683526509066 C 296.2741072930934 66.47396431030523 295.710462013014 64.37363725040166 295.18279409123755 62.264402111544655 C 294.6531274273331 60.14823846683498 294.1554406374758 58.022176956621536 293.705723658689 55.887207367454664 Z " fill-rule="evenodd" fill="rgb(43,42,41)"/><path d=" M 297.21251672216175 18.632631397750743 L 294.50422113880154 18.632631397750743 L 290.2488991484148 30.294296534312593 L 291.9478299571648 30.294296534312593 L 292.6973582551427 28.179122676153327 L 294.96892868354786 28.179122676153327 L 294.8579984954471 30.294296534312593 L 296.72482364294416 30.294296534312593 L 297.21251672216175 18.632631397750743 Z  M 295.3456915746647 20.698315928391082 L 295.0378852869618 26.596453982097785 L 293.2550073088383 26.596453982097785 L 295.3456915746647 20.698315928391082 Z  M 324.57829456686807 18.632631397750743 L 321.7860518141343 18.632631397750743 L 319.41354490826814 30.297265893963754 L 322.32371344655047 30.297265893963754 C 324.174548657024 30.294296534312593 325.32982160697395 29.328264861142998 325.6955914163872 27.528832912554492 L 325.8894694027975 26.57962761074134 C 326.1393121687901 25.346353568969448 325.9324423585482 24.463463966031668 325.01801783501514 24.08041657103513 C 325.9204499057806 23.697369176038535 326.4461190854291 22.93127438604546 326.6899656250379 21.731653086986455 L 326.7749121654754 21.31495294927703 C 327.14068197488865 19.515521000688523 326.4960876386276 18.632631397750743 324.57829456686807 18.632631397750743 Z  M 323.156189542838 25.046448244204726 C 323.99765997870117 25.046448244204726 324.2824807319328 25.380006311682337 324.0626190978593 26.462832797796636 L 323.85574928761736 27.479343585035565 C 323.6798599803585 28.345406816616958 323.2861077811541 28.628485770025236 322.66349960830047 28.628485770025236 L 321.60316690942767 28.628485770025236 L 322.3317084150622 25.046448244204726 L 323.156189542838 25.046448244204726 Z  M 324.1895392229835 20.2984421620381 C 324.84512664094825 20.2984421620381 325.05699330651 20.6656529722286 324.887100225635 21.498063461097104 L 324.7551832451909 22.14835322469588 C 324.56530274303645 23.080732155152646 324.08360589020265 23.380637479917368 323.39403985606293 23.380637479917368 L 322.67049520574824 23.380637479917368 L 323.2981002339218 20.2984421620381 L 324.1895392229835 20.2984421620381 Z  M 349.57056613464425 20.2984421620381 L 351.50434914342736 20.2984421620381 L 349.47162839931116 30.294296534312593 L 351.3214642387207 30.294296534312593 L 353.3541849828369 20.2984421620381 L 355.28896736268393 20.2984421620381 L 355.62775415336995 18.632631397750743 L 349.90935292533027 18.632631397750743 L 349.57056613464425 20.2984421620381 Z  M 379.4207804443814 21.31495294927703 C 379.58967415419244 20.481552673858175 380.02440056701965 20.165810764287357 380.6130301236983 20.165810764287357 C 381.201659680377 20.165810764287357 381.507467225952 20.481552673858175 381.337574145077 21.31495294927703 L 380.0573798121307 27.611974982786307 C 379.8874867312557 28.44537525820516 379.4537596894925 28.762106954326384 378.8651301328138 28.762106954326384 C 378.2755012050711 28.762106954326384 377.96969365949616 28.44537525820516 378.13958674037116 27.611974982786307 L 379.4207804443814 21.31495294927703 Z  M 376.31273643543295 27.49616995639201 C 375.93297543112413 29.361917603855886 376.7084873767653 30.430887078264846 378.5253439710638 30.430887078264846 C 380.3422005653623 30.430887078264846 381.5514395527667 29.361917603855886 381.9312005570755 27.49616995639201 L 383.1644244500152 21.431747762221733 C 383.544185454324 19.566000114757855 382.76867350868287 18.5 380.9518169143844 18.5 C 379.13496032008584 18.5 377.92572133268146 19.566000114757855 377.54596032837264 21.431747762221733 L 376.31273643543295 27.49616995639201 Z  M 408.8892350076818 25.94616421849895 L 408.5504482169958 27.611974982786307 C 408.3805551361208 28.44537525820516 407.9488268364855 28.74528058296994 407.36019727980687 28.74528058296994 C 406.77156772312816 28.74528058296994 406.46276206436124 28.44537525820516 406.63265514523624 27.611974982786307 L 407.9128494781826 21.31495294927703 C 408.0827425590576 20.481552673858175 408.5174689718848 20.165810764287357 409.10609852856345 20.165810764287357 C 409.6947280852421 20.165810764287357 410.0005356308171 20.481552673858175 409.8306425499421 21.31495294927703 L 409.5768022996936 22.56406357585496 L 411.3257016616421 22.56406357585496 L 411.5565563774193 21.431747762221733 C 411.93631738172814 19.566000114757855 411.2107739892855 18.5 409.393917394987 18.5 C 407.57706080068846 18.5 406.41878973754655 19.566000114757855 406.0390287332377 21.431747762221733 L 404.80580484029804 27.49616995639201 C 404.4260438359892 29.361917603855886 405.1505878573679 30.430887078264846 406.96744445166644 30.430887078264846 C 408.7843010459649 30.430887078264846 409.9435714801708 29.361917603855886 410.32333248447964 27.49616995639201 L 410.63813436963034 25.94616421849895 L 408.8892350076818 25.94616421849895 Z  M 439.1881669251418 18.632631397750743 L 436.48087071284544 18.632631397750743 L 432.2245493513948 30.294296534312593 L 433.9234801601448 30.294296534312593 L 434.6730084581227 28.179122676153327 L 436.9445788865278 28.179122676153327 L 436.83364869842706 30.294296534312593 L 438.7004738459242 30.294296534312593 L 439.1881669251418 18.632631397750743 Z  M 437.32134177764476 20.698315928391082 L 437.0135354899418 26.596453982097785 L 435.2306575118183 26.596453982097785 L 437.32134177764476 20.698315928391082 Z  M 460.86452530266354 30.3140922653202 L 461.15034542695923 30.3140922653202 C 463.00118063743264 30.3140922653202 463.9445869218209 29.477722630250184 464.44527182487013 27.345722400734473 L 466.080242885526 20.2984421620381 L 467.6952265249025 20.2984421620381 L 465.6625057807863 30.294296534312593 L 467.5463202363709 30.294296534312593 L 469.918827142237 18.632631397750743 L 464.687119622351 18.632631397750743 L 462.59243787226876 27.445690842322676 C 462.33759825095626 28.528517328436976 462.0457819002768 28.64531214138168 461.20431146441354 28.64531214138168 L 460.86452530266354 30.3140922653202 Z  M 494.3164729269507 21.31495294927703 C 494.4853666367617 20.481552673858175 494.9200930495889 20.165810764287357 495.5087226062676 20.165810764287357 C 496.0973521629463 20.165810764287357 496.40315970852123 20.481552673858175 496.23426599871027 21.31495294927703 L 494.95307229469995 27.611974982786307 C 494.78317921382495 28.44537525820516 494.3494521720618 28.762106954326384 493.76082261538306 28.762106954326384 C 493.17219305870435 28.762106954326384 492.86638551312944 28.44537525820516 493.0352792229404 27.611974982786307 L 494.3164729269507 21.31495294927703 Z  M 491.20842891800226 27.49616995639201 C 490.8296672847574 29.361917603855886 491.6041798593345 30.430887078264846 493.42103645363306 30.430887078264846 C 495.2378930479316 30.430887078264846 496.4471320353359 29.361917603855886 496.8268930396448 27.49616995639201 L 498.0601169325845 21.431747762221733 C 498.43987793689337 19.566000114757855 497.6643659912521 18.5 495.8475093969537 18.5 C 494.03065280265514 18.5 492.8214138152507 19.566000114757855 492.4426521820059 21.431747762221733 L 491.20842891800226 27.49616995639201 Z  M 522.1509558006592 25.29686424145052 L 524.2536325192533 25.29686424145052 L 523.2372721471952 30.294296534312593 L 525.1210866027798 30.294296534312593 L 527.4925941375819 18.632631397750743 L 525.6087796819974 18.632631397750743 L 524.5924193099394 23.631053477163164 L 522.4897425913452 23.631053477163164 L 523.5061029634034 18.632631397750743 L 521.6562671239938 18.632631397750743 L 519.2837602181277 30.294296534312593 L 521.1335960575371 30.294296534312593 L 522.1509558006592 25.29686424145052 Z " fill-rule="evenodd" fill="rgb(43,42,41)"/><path d=" M 82.95879957090155 45.54349616320417 C 68.72756172651079 57.89230769230767 54.617156088924546 74.48171439266326 42.84749997819621 94.33365150664417 C 62.465257851542404 101.6314430095452 87.38065917197953 106 114.50000000000001 106 C 123.89695095893039 106 133.02627355898795 105.47228148979974 141.7661369800888 104.48330525921767 C 142.5730165098248 102.23454987834549 143.06633146983665 99.91933370765486 143.22111652814 97.54559236384051 C 145.01662320445843 70.15184353359535 116.71192841381837 54.12090585813212 82.95879957090155 45.54349616320417 Z " fill-rule="evenodd" fill="rgb(227,30,36)"/><path d=" M 157.3095526735799 65.84478757252481 C 161.73241088793725 46.54933557926256 158.70161958503041 31.603593486805153 145.35415449288763 23.94770728055397 C 133.4586731089579 17.126052779337442 114.0676004500301 22.43795620437953 93.75980080063492 36.99088527044728 C 119.64685284190513 42.51209058581321 143.33196260215072 51.66681639528355 157.3095526735799 65.84478757252481 Z " fill-rule="evenodd" fill="rgb(227,30,36)"/><path d=" M 165.33241176008858 5.502358225715852 C 182.07616061539 21.8923825566161 183.30345633574336 57.89230769230767 170.27454887972158 99.27555680329402 L 170.27355026644221 99.2914280366835 C 205.30490410696063 90.22796181920268 228.99900138672064 72.8935991016283 229 53 C 228.99900138672064 32.184877409694934 203.05902284164347 14.171027512633316 165.33241176008858 5.502358225715852 Z " fill-rule="evenodd" fill="rgb(227,30,36)"/><path d=" M 73.69666140468694 33.457551937113976 C 89.97006340540212 17.278813400711215 106.71181503414472 5.727531349429171 122.0185593804237 0.11605839416057506 C 119.53201231477688 0.04166198764738738 117.02749021010125 0 114.50000000000001 0 C 69.00917067129488 0 29.70674783488431 12.28731049971924 11.237395232820802 30.080947033501786 C 29.381199905807662 29.466928691746205 51.63929128982461 30.32992700729926 73.69666140468694 33.457551937113976 Z " fill-rule="evenodd" fill="rgb(227,30,36)"/><path d=" M 31.155735703259225 89.33322103687067 C 41.6461682031066 71.33821822945907 53.43679519270184 55.31521617069063 65.68378845097202 41.846490735541806 C 44.06081511263834 38.00763615946096 21.926551775264045 36.780591428036644 5.150847295022629 37.23887329215796 C 1.8034955825534809 42.2184727681078 0 47.51252105558672 0 53 C 0.0009986132793784464 67.06290473516748 11.842554880122805 79.84519932622118 31.155735703259225 89.33322103687067 Z " fill-rule="evenodd" fill="rgb(227,30,36)"/></svg>